<svg xmlns="http://www.w3.org/2000/svg" viewBox="0 0 370.02 114.08"><defs><style>.cls-1{fill:#3db7b3;}</style></defs><g id="Layer_2" data-name="Layer 2"><g id="Layer_1-2" data-name="Layer 1"><path class="cls-1" d="M18.71,0a7.38,7.38,0,0,1,2.6,3.09C25.88,12,30.5,20.93,35.1,29.84c.17.32.34.64.48,1,.63,1.44.72,2.93-.61,3.91s-2.72.65-4-.37-2.23-1.81-3.36-2.7c-.31-.25-.64-.63-1.1-.4s-.28.74-.28,1.13c0,3.64,0,7.29,0,10.94V80.42A9.92,9.92,0,0,0,39.06,90c4.19-1.21,6.52-4.35,6.56-9,.05-6.82,0-13.63.08-20.44,0-2.74.3-5.49.59-8.21.37-3.37,3.48-6.12,7.14-6.46a7.39,7.39,0,0,1,7.75,4.86,11.33,11.33,0,0,1,.72,3.86c0,8.66.19,17.33-.09,26C61.39,94.06,54.21,101.53,40,104c-7.75,1.33-14.94-.83-21.28-5.19a19.55,19.55,0,0,1-8.61-16.38c-.24-16.49-.1-33-.13-49.49a4,4,0,0,0-.2-2,21.83,21.83,0,0,0-4.58,3.37c-1.07.89-2.21,1.42-3.6.58C0,33.83-.43,32.67.46,30.93c5-9.67,10-19.32,14.91-29A5.14,5.14,0,0,1,17.63,0Z"/><path class="cls-1" d="M370,54.51c-1.44,3.38-4.16,4.48-7.64,4.34-2.21-.1-4.43,0-6.65,0-2.77,0-3.11.38-3.1,3.08,0,11.41,0,22.82.09,34.23a7.18,7.18,0,0,1-3.89,6.58,6.8,6.8,0,0,1-7.49-.29A6.45,6.45,0,0,1,338,96.84c0-10.63,0-21.26,0-31.9,0-1.35.44-2.67.44-4.06s-.46-2.14-2.06-2.09c-2.87.1-5.75.07-8.62,0-3.1-.06-5.56-1.53-6.27-3.64A6.1,6.1,0,0,1,327.4,47c4.84,0,9.7.11,14.55.1,6.52,0,13.05.06,19.57-.17,3.94-.14,6.88,1,8.5,4.72Z"/><path class="cls-1" d="M171.09,99c1.54.23,2.87.5,4.21.62,1.52.13,2.55.8,2.67,2.35s-1.05,2.22-2.25,2.65c-3.15,1.14-6.33,2.2-9.49,3.29-5.6,1.92-11.2,3.83-16.79,5.77-1.19.41-2.38.67-3.36-.32a3,3,0,0,1-.44-3.18q4-13.27,8-26.57c.42-1.4,1-2.64,2.79-2.5s2.22,1.41,2.46,2.86c.17,1.06.36,2.12.48,3.19.17,1.52.77,1.49,1.73.56,3.78-3.64,4.94-8.24,4.64-13.25-.43-7.19-4.79-12.49-11.24-13.75-3.31-.64-6.69-.09-10-.24-1.24-.05-1.35.93-1.35,1.89,0,3.77,0,7.53,0,11.3,0,8,0,16,0,24,0,4.81-2.11,8-6,9.19a7.83,7.83,0,0,1-10.19-7.28q-.07-22.41,0-44.82c0-5.13,2.68-7.75,7.75-7.71,7,.06,13.89-.12,20.84.18,13,.55,23.77,9.27,26.18,22,2.14,11.32-.39,21.37-9.85,28.92A8.17,8.17,0,0,0,171.09,99Z"/><path class="cls-1" d="M188.2,75.85V55.61a11.79,11.79,0,0,1,.87-4.54,5.83,5.83,0,0,1,6-4c6.88,0,13.77-.08,20.65,0,5.63.1,10.91,1.5,15.32,5.21,4.13,3.48,5.73,8.23,5.86,13.37.11,4.81-.73,9.53-3.64,13.6a11,11,0,0,1-4,3.75c-1.54.75-1.57,1.87-.65,3.06,1.53,2,3.17,3.89,4.74,5.84s2.38,7,1.08,8.48c-2.71,3.19-7.05,4.29-10.19,1.08a61,61,0,0,1-7.47-9.62c-3.16-4.93-6.64-5-12.44-3.87-1.09.21-1.44,1.17-1.44,2.21,0,2,0,4,.05,5.92a7.34,7.34,0,1,1-14.67-.07Zm21.4.54c1.25,0,2.51,0,3.77,0,6-.1,8.42-2.12,9.68-7.94a7.86,7.86,0,0,0-6.49-9.65c-4.29-.76-8.61-.15-12.91-.31-1,0-1.1.59-1.16,1.4-.24,3,.54,5.93.35,8.92-.11,1.73,0,3.46,0,5.2,0,2.23.11,2.37,2.28,2.38C206.6,76.4,208.1,76.39,209.6,76.39Z"/><path class="cls-1" d="M72.24,75.67q0-9.76,0-19.54a14.8,14.8,0,0,1,.48-4.25,5.89,5.89,0,0,1,6.17-4.66c7.37,0,14.76-.23,22.11.18,6.51.36,12.25,2.84,15.88,8.7,2.72,4.39,3,9.33,2.33,14.22C117.71,81,110.7,87.09,99.84,87.51c-3.53.13-7.07.09-10.6.13-2.28,0-2.56.31-2.52,2.62a51.45,51.45,0,0,0,.13,6.09c.47,3.47-4,7.46-7.3,7.41a7.67,7.67,0,0,1-7.36-7.47C72.34,89.42,72.24,82.55,72.24,75.67ZM86.8,69.22c0,2.18,0,3.79,0,5.41,0,1.29.54,1.81,1.86,1.78,2.63-.07,5.27,0,7.91,0,5.6-.17,8-2.15,9.21-7.62,1.12-4.89-1.73-9.08-6.73-10-3.82-.66-7.65-.14-11.48-.26-1,0-1.06.67-1.13,1.45C86.14,63.26,87.26,66.49,86.8,69.22Z"/><path class="cls-1" d="M271.8,82.17c0-9.08,0-18.16,0-27.24,0-5.51,2.45-7.9,7.9-7.9h27a11.73,11.73,0,0,1,2.14.15c3.33.61,4.92,2.66,4.77,6.07a5.53,5.53,0,0,1-5.32,5.11c-2.87.17-5.75.08-8.62.09-3.9,0-7.79,0-11.68,0-1.48,0-2.06.56-2,2,.05,2.93.06,5.86,0,8.78,0,1.51.61,2,2,1.93,5.74-.09,11.48.12,17.22-.09a5.88,5.88,0,0,1,6.24,7.39c-.5,2.28-2.83,4-5.9,4-4.85.08-9.71,0-14.56,0H289.7c-3.13,0-3.61.68-3.39,4a52.23,52.23,0,0,1,0,11.25,6.83,6.83,0,0,1-5.21,5.75,6.91,6.91,0,0,1-7.35-2.13,7.75,7.75,0,0,1-2.11-5.7c.07-4.48,0-9,0-13.45Z"/><path class="cls-1" d="M261.12,75.66q0,10.22,0,20.42c0,4.43-3.06,7.61-7.25,7.62a7.35,7.35,0,0,1-7.49-7.64q0-20.59.08-41.2c0-3.56,1.71-6.11,4.77-7.27a7.31,7.31,0,0,1,9.84,7.11v21Z"/></g></g></svg>