<?xml version="1.0" encoding="UTF-8"?>
<!DOCTYPE svg PUBLIC "-//W3C//DTD SVG 1.1//EN" "http://www.w3.org/Graphics/SVG/1.1/DTD/svg11.dtd">
<svg xmlns="http://www.w3.org/2000/svg" version="1.1" width="819px" height="793px" style="shape-rendering:geometricPrecision; text-rendering:geometricPrecision; image-rendering:optimizeQuality; fill-rule:evenodd; clip-rule:evenodd" xmlns:xlink="http://www.w3.org/1999/xlink">
<g><path style="opacity:0.349" fill="#3db7b3" d="M 623.5,-0.5 C 633.167,-0.5 642.833,-0.5 652.5,-0.5C 694.703,2.43956 731.703,17.7729 763.5,45.5C 763.833,47.8333 765.167,49.1667 767.5,49.5C 768.419,52.0892 770.086,54.0892 772.5,55.5C 774.5,56.8333 776.167,58.5 777.5,60.5C 777.427,62.0269 778.094,63.0269 779.5,63.5C 780.5,63.8333 781.167,64.5 781.5,65.5C 781.427,67.0269 782.094,68.0269 783.5,68.5C 786.605,71.2749 788.938,74.6082 790.5,78.5C 790.427,80.0269 791.094,81.0269 792.5,81.5C 793.338,81.8417 793.672,82.5084 793.5,83.5C 793.427,85.0269 794.094,86.0269 795.5,86.5C 802.386,97.2819 807.386,108.949 810.5,121.5C 810.41,124.152 811.076,126.485 812.5,128.5C 815.251,137.346 817.251,146.346 818.5,155.5C 818.5,169.5 818.5,183.5 818.5,197.5C 812.014,244.457 797.181,288.79 774,330.5C 758.066,356.027 743.399,382.36 730,409.5C 712.726,447.434 704.226,487.267 704.5,529C 705.256,553.899 706.922,578.732 709.5,603.5C 709.376,609.069 710.043,614.402 711.5,619.5C 716.438,653.05 715.272,686.383 708,719.5C 694.939,761.43 666.773,785.764 623.5,792.5C 616.167,792.5 608.833,792.5 601.5,792.5C 597.119,791.743 592.786,790.743 588.5,789.5C 586.485,788.076 584.152,787.41 581.5,787.5C 570.932,785.047 561.266,780.714 552.5,774.5C 552.027,773.094 551.027,772.427 549.5,772.5C 549.027,771.094 548.027,770.427 546.5,770.5C 546.027,769.094 545.027,768.427 543.5,768.5C 540.568,767.2 538.234,765.2 536.5,762.5C 535.738,760.738 534.404,759.738 532.5,759.5C 521.36,749.528 511.86,738.194 504,725.5C 492,703.5 480,681.5 468,659.5C 461.98,650.117 455.48,641.117 448.5,632.5C 448.573,630.973 447.906,629.973 446.5,629.5C 443.833,627.5 441.5,625.167 439.5,622.5C 438.738,620.738 437.404,619.738 435.5,619.5C 433.091,618.299 431.091,616.633 429.5,614.5C 429.027,613.094 428.027,612.427 426.5,612.5C 426.027,611.094 425.027,610.427 423.5,610.5C 406.357,601.298 388.024,596.965 368.5,597.5C 356.383,597.457 344.383,598.624 332.5,601C 316.125,604.844 299.791,608.844 283.5,613C 248.439,620.646 213.105,622.313 177.5,618C 171.703,617.258 166.036,616.091 160.5,614.5C 158.162,612.96 155.495,612.294 152.5,612.5C 150.485,611.076 148.152,610.41 145.5,610.5C 134.244,607.862 123.578,603.862 113.5,598.5C 113.027,597.094 112.027,596.427 110.5,596.5C 107.515,595.674 104.849,594.341 102.5,592.5C 102.027,591.094 101.027,590.427 99.5,590.5C 98.5084,590.672 97.8417,590.338 97.5,589.5C 97.0269,588.094 96.0269,587.427 94.5,587.5C 94.0269,586.094 93.0269,585.427 91.5,585.5C 91.0269,584.094 90.0269,583.427 88.5,583.5C 86.5956,583.262 85.2623,582.262 84.5,580.5C 84.0269,579.094 83.0269,578.427 81.5,578.5C 78.2157,576.883 75.5491,574.55 73.5,571.5C 72.7377,569.738 71.4044,568.738 69.5,568.5C 65.1667,564.833 61.1667,560.833 57.5,556.5C 57.573,554.973 56.9063,553.973 55.5,553.5C 38.9582,535.112 26.4582,514.112 18,490.5C 7.52279,461.941 1.35612,432.608 -0.5,402.5C -0.5,393.167 -0.5,383.833 -0.5,374.5C 0.639525,356.86 3.63952,339.526 8.5,322.5C 9.92381,320.485 10.5905,318.152 10.5,315.5C 13.615,303.143 18.2817,291.476 24.5,280.5C 25.9063,280.027 26.573,279.027 26.5,277.5C 26.6596,275.847 27.3263,274.514 28.5,273.5C 29.9063,273.027 30.573,272.027 30.5,270.5C 33.7297,264.273 37.7297,258.607 42.5,253.5C 43.9063,253.027 44.573,252.027 44.5,250.5C 45.5,248.833 46.8333,247.5 48.5,246.5C 52.8333,242.833 56.8333,238.833 60.5,234.5C 63.4274,233.243 65.7607,231.243 67.5,228.5C 87.8074,211.845 110.807,200.179 136.5,193.5C 139.152,193.59 141.485,192.924 143.5,191.5C 152.208,188.653 161.208,186.487 170.5,185C 210.937,180.094 250.937,172.928 290.5,163.5C 294.915,163.139 298.915,161.806 302.5,159.5C 322.622,152.009 342.289,143.343 361.5,133.5C 363.027,133.573 364.027,132.906 364.5,131.5C 365.514,130.326 366.847,129.66 368.5,129.5C 370.027,129.573 371.027,128.906 371.5,127.5C 371.842,126.662 372.508,126.328 373.5,126.5C 375.027,126.573 376.027,125.906 376.5,124.5C 377.899,123.11 379.566,122.11 381.5,121.5C 383.027,121.573 384.027,120.906 384.5,119.5C 395.317,111.59 406.317,103.923 417.5,96.5C 419.749,95.9202 421.415,94.5869 422.5,92.5C 425.208,89.7915 428.208,87.4581 431.5,85.5C 433.749,84.9202 435.415,83.5869 436.5,81.5C 444.931,74.0693 453.931,67.4026 463.5,61.5C 465.027,61.573 466.027,60.9063 466.5,59.5C 468.027,59.573 469.027,58.9063 469.5,57.5C 471.027,57.573 472.027,56.9063 472.5,55.5C 496.301,39.0987 521.968,26.0987 549.5,16.5C 556.167,15.2762 562.501,13.2762 568.5,10.5C 586.439,4.78836 604.773,1.12169 623.5,-0.5 Z"/></g>
<g><path style="opacity:0.349" fill="#69c1ba" d="M 568.5,10.5 C 562.501,13.2762 556.167,15.2762 549.5,16.5C 555.499,13.7238 561.833,11.7238 568.5,10.5 Z"/></g>
<g><path style="opacity:0.294" fill="#87cdc5" d="M 763.5,45.5 C 765.167,46.5 766.5,47.8333 767.5,49.5C 765.167,49.1667 763.833,47.8333 763.5,45.5 Z"/></g>
<g><path style="opacity:0.329" fill="#82c9c0" d="M 767.5,49.5 C 769.914,50.9108 771.581,52.9108 772.5,55.5C 770.086,54.0892 768.419,52.0892 767.5,49.5 Z"/></g>
<g><path style="opacity:0.329" fill="#7cc8c0" d="M 472.5,55.5 C 472.027,56.9063 471.027,57.573 469.5,57.5C 469.973,56.0937 470.973,55.427 472.5,55.5 Z"/></g>
<g><path style="opacity:0.325" fill="#7dc8c1" d="M 469.5,57.5 C 469.027,58.9063 468.027,59.573 466.5,59.5C 466.973,58.0937 467.973,57.427 469.5,57.5 Z"/></g>
<g><path style="opacity:0.329" fill="#7cc8c0" d="M 466.5,59.5 C 466.027,60.9063 465.027,61.573 463.5,61.5C 463.973,60.0937 464.973,59.427 466.5,59.5 Z"/></g>
<g><path style="opacity:0.325" fill="#7fcabd" d="M 777.5,60.5 C 778.906,60.9731 779.573,61.9731 779.5,63.5C 778.094,63.0269 777.427,62.0269 777.5,60.5 Z"/></g>
<g><path style="opacity:0.278" fill="#81cabc" d="M 781.5,65.5 C 782.906,65.9731 783.573,66.9731 783.5,68.5C 782.094,68.0269 781.427,67.0269 781.5,65.5 Z"/></g>
<g><path style="opacity:0.271" fill="#7dc7be" d="M 790.5,78.5 C 791.906,78.9731 792.573,79.9731 792.5,81.5C 791.094,81.0269 790.427,80.0269 790.5,78.5 Z"/></g>
<g><path style="opacity:0.349" fill="#6cc2bb" d="M 436.5,81.5 C 435.415,83.5869 433.749,84.9202 431.5,85.5C 432.585,83.4131 434.251,82.0798 436.5,81.5 Z"/></g>
<g><path style="opacity:0.271" fill="#7bc6be" d="M 793.5,83.5 C 794.906,83.9731 795.573,84.9731 795.5,86.5C 794.094,86.0269 793.427,85.0269 793.5,83.5 Z"/></g>
<g><path style="opacity:0.349" fill="#6dc3bb" d="M 422.5,92.5 C 421.415,94.5869 419.749,95.9202 417.5,96.5C 418.585,94.4131 420.251,93.0798 422.5,92.5 Z"/></g>
<g><path style="opacity:0.325" fill="#7ec9c0" d="M 384.5,119.5 C 384.027,120.906 383.027,121.573 381.5,121.5C 381.973,120.094 382.973,119.427 384.5,119.5 Z"/></g>
<g><path style="opacity:0.349" fill="#6bc2ba" d="M 810.5,121.5 C 811.924,123.515 812.59,125.848 812.5,128.5C 811.076,126.485 810.41,124.152 810.5,121.5 Z"/></g>
<g><path style="opacity:0.325" fill="#7ec9c0" d="M 376.5,124.5 C 376.027,125.906 375.027,126.573 373.5,126.5C 373.973,125.094 374.973,124.427 376.5,124.5 Z"/></g>
<g><path style="opacity:0.333" fill="#7cc8c0" d="M 371.5,127.5 C 371.027,128.906 370.027,129.573 368.5,129.5C 368.973,128.094 369.973,127.427 371.5,127.5 Z"/></g>
<g><path style="opacity:0.329" fill="#7dc8c1" d="M 364.5,131.5 C 364.027,132.906 363.027,133.573 361.5,133.5C 361.973,132.094 362.973,131.427 364.5,131.5 Z"/></g>
<g><path style="opacity:0.349" fill="#6dc2bc" d="M 302.5,159.5 C 298.915,161.806 294.915,163.139 290.5,163.5C 294.216,161.595 298.216,160.261 302.5,159.5 Z"/></g>
<g><path style="opacity:0.349" fill="#6cc2ba" d="M 143.5,191.5 C 141.485,192.924 139.152,193.59 136.5,193.5C 138.515,192.076 140.848,191.41 143.5,191.5 Z"/></g>
<g><path style="opacity:0.345" fill="#6bc2bb" d="M 67.5,228.5 C 65.7607,231.243 63.4274,233.243 60.5,234.5C 62.2393,231.757 64.5726,229.757 67.5,228.5 Z"/></g>
<g><path style="opacity:0.325" fill="#7dc7bf" d="M 60.5,234.5 C 56.8333,238.833 52.8333,242.833 48.5,246.5C 51.5,241.5 55.5,237.5 60.5,234.5 Z"/></g>
<g><path style="opacity:0.31" fill="#83cbc3" d="M 44.5,250.5 C 44.573,252.027 43.9063,253.027 42.5,253.5C 42.427,251.973 43.0937,250.973 44.5,250.5 Z"/></g>
<g><path style="opacity:0.227" fill="#84cbc4" d="M 30.5,270.5 C 30.573,272.027 29.9063,273.027 28.5,273.5C 28.427,271.973 29.0937,270.973 30.5,270.5 Z"/></g>
<g><path style="opacity:0.208" fill="#85cbc4" d="M 26.5,277.5 C 26.573,279.027 25.9063,280.027 24.5,280.5C 24.427,278.973 25.0937,277.973 26.5,277.5 Z"/></g>
<g><path style="opacity:0.349" fill="#6ec3bb" d="M 10.5,315.5 C 10.5905,318.152 9.92381,320.485 8.5,322.5C 8.40953,319.848 9.07619,317.515 10.5,315.5 Z"/></g>
<g><path style="opacity:0.004" fill="#8ecec9" d="M 55.5,553.5 C 56.9063,553.973 57.573,554.973 57.5,556.5C 56.0937,556.027 55.427,555.027 55.5,553.5 Z"/></g>
<g><path style="opacity:0.333" fill="#7fc9bc" d="M 69.5,568.5 C 71.4044,568.738 72.7377,569.738 73.5,571.5C 71.5956,571.262 70.2623,570.262 69.5,568.5 Z"/></g>
<g><path style="opacity:0.263" fill="#82cbc4" d="M 81.5,578.5 C 83.0269,578.427 84.0269,579.094 84.5,580.5C 82.9731,580.573 81.9731,579.906 81.5,578.5 Z"/></g>
<g><path style="opacity:0.251" fill="#82cbbc" d="M 88.5,583.5 C 90.0269,583.427 91.0269,584.094 91.5,585.5C 89.9731,585.573 88.9731,584.906 88.5,583.5 Z"/></g>
<g><path style="opacity:0.251" fill="#80cabd" d="M 91.5,585.5 C 93.0269,585.427 94.0269,586.094 94.5,587.5C 92.9731,587.573 91.9731,586.906 91.5,585.5 Z"/></g>
<g><path style="opacity:0.208" fill="#87ccc4" d="M 94.5,587.5 C 96.0269,587.427 97.0269,588.094 97.5,589.5C 95.9731,589.573 94.9731,588.906 94.5,587.5 Z"/></g>
<g><path style="opacity:0.208" fill="#84cbc3" d="M 99.5,590.5 C 101.027,590.427 102.027,591.094 102.5,592.5C 100.973,592.573 99.9731,591.906 99.5,590.5 Z"/></g>
<g><path style="opacity:0.18" fill="#87cbc5" d="M 110.5,596.5 C 112.027,596.427 113.027,597.094 113.5,598.5C 111.973,598.573 110.973,597.906 110.5,596.5 Z"/></g>
<g><path style="opacity:0.329" fill="#73c4bc" d="M 145.5,610.5 C 148.152,610.41 150.485,611.076 152.5,612.5C 149.848,612.59 147.515,611.924 145.5,610.5 Z"/></g>
<g><path style="opacity:0.275" fill="#7dc7bf" d="M 423.5,610.5 C 425.027,610.427 426.027,611.094 426.5,612.5C 424.973,612.573 423.973,611.906 423.5,610.5 Z"/></g>
<g><path style="opacity:0.322" fill="#75c4bc" d="M 152.5,612.5 C 155.495,612.294 158.162,612.96 160.5,614.5C 157.572,614.435 154.905,613.768 152.5,612.5 Z"/></g>
<g><path style="opacity:0.271" fill="#7fc6bf" d="M 426.5,612.5 C 428.027,612.427 429.027,613.094 429.5,614.5C 427.973,614.573 426.973,613.906 426.5,612.5 Z"/></g>
<g><path style="opacity:0.325" fill="#73c5bc" d="M 709.5,603.5 C 710.806,608.616 711.473,613.949 711.5,619.5C 710.043,614.402 709.376,609.069 709.5,603.5 Z"/></g>
<g><path style="opacity:0.329" fill="#82c9c2" d="M 435.5,619.5 C 437.404,619.738 438.738,620.738 439.5,622.5C 437.596,622.262 436.262,621.262 435.5,619.5 Z"/></g>
<g><path style="opacity:0.004" fill="#8dd2c7" d="M 446.5,629.5 C 447.906,629.973 448.573,630.973 448.5,632.5C 447.094,632.027 446.427,631.027 446.5,629.5 Z"/></g>
<g><path style="opacity:0.329" fill="#80c9c2" d="M 532.5,759.5 C 534.404,759.738 535.738,760.738 536.5,762.5C 534.596,762.262 533.262,761.262 532.5,759.5 Z"/></g>
<g><path style="opacity:0.227" fill="#87ccc5" d="M 543.5,768.5 C 545.027,768.427 546.027,769.094 546.5,770.5C 544.973,770.573 543.973,769.906 543.5,768.5 Z"/></g>
<g><path style="opacity:0.239" fill="#84cbc4" d="M 546.5,770.5 C 548.027,770.427 549.027,771.094 549.5,772.5C 547.973,772.573 546.973,771.906 546.5,770.5 Z"/></g>
<g><path style="opacity:0.224" fill="#84cbc4" d="M 549.5,772.5 C 551.027,772.427 552.027,773.094 552.5,774.5C 550.973,774.573 549.973,773.906 549.5,772.5 Z"/></g>
<g><path style="opacity:0.31" fill="#78c6bf" d="M 581.5,787.5 C 584.152,787.41 586.485,788.076 588.5,789.5C 585.848,789.59 583.515,788.924 581.5,787.5 Z"/></g>
</svg>
