<?xml version="1.0" encoding="UTF-8"?>
<!DOCTYPE svg PUBLIC "-//W3C//DTD SVG 1.1//EN" "http://www.w3.org/Graphics/SVG/1.1/DTD/svg11.dtd">
<svg xmlns="http://www.w3.org/2000/svg" version="1.1" width="819px" height="634px" style="shape-rendering:geometricPrecision; text-rendering:geometricPrecision; image-rendering:optimizeQuality; fill-rule:evenodd; clip-rule:evenodd" xmlns:xlink="http://www.w3.org/1999/xlink">
<g><path style="opacity:0.349" fill="#3db7b3" d="M 404.5,-0.5 C 414.167,-0.5 423.833,-0.5 433.5,-0.5C 452.679,2.78428 470.679,9.45095 487.5,19.5C 488.035,21.4456 489.368,22.4456 491.5,22.5C 494.444,24.3111 497.444,26.1444 500.5,28C 506.003,32.3368 511.003,37.1701 515.5,42.5C 516.08,44.7488 517.413,46.4154 519.5,47.5C 520.5,47.8333 521.167,48.5 521.5,49.5C 521.427,51.0269 522.094,52.0269 523.5,52.5C 526.605,55.2749 528.938,58.6082 530.5,62.5C 530.427,64.0269 531.094,65.0269 532.5,65.5C 542.198,80.2414 549.198,96.2414 553.5,113.5C 553.259,115.898 553.926,117.898 555.5,119.5C 556.774,121.993 557.44,124.659 557.5,127.5C 557.294,130.495 557.96,133.162 559.5,135.5C 565.168,157.503 569.835,179.837 573.5,202.5C 573.294,205.495 573.96,208.162 575.5,210.5C 580.795,226.369 587.461,241.702 595.5,256.5C 595.427,258.027 596.094,259.027 597.5,259.5C 597.427,261.027 598.094,262.027 599.5,262.5C 604.135,268.81 608.802,275.143 613.5,281.5C 613.427,283.027 614.094,284.027 615.5,284.5C 616.5,284.833 617.167,285.5 617.5,286.5C 618.419,289.089 620.086,291.089 622.5,292.5C 635.785,306.111 649.785,318.778 664.5,330.5C 665.035,332.446 666.368,333.446 668.5,333.5C 673.469,336.478 678.135,339.811 682.5,343.5C 683.035,345.446 684.368,346.446 686.5,346.5C 711.423,362.236 736.757,377.403 762.5,392C 771.3,398.633 779.3,406.133 786.5,414.5C 786.738,416.404 787.738,417.738 789.5,418.5C 792.933,421.601 795.6,425.268 797.5,429.5C 797.427,431.027 798.094,432.027 799.5,432.5C 806.282,442.156 810.948,452.823 813.5,464.5C 813.42,467.781 814.087,470.781 815.5,473.5C 816.718,478.463 817.718,483.463 818.5,488.5C 818.5,495.833 818.5,503.167 818.5,510.5C 816.008,535.138 807.841,557.805 794,578.5C 789.951,583.95 785.451,588.95 780.5,593.5C 779.094,593.973 778.427,594.973 778.5,596.5C 756.602,617.449 730.602,629.782 700.5,633.5C 690.833,633.5 681.167,633.5 671.5,633.5C 651.509,631.166 632.842,624.833 615.5,614.5C 615.027,613.094 614.027,612.427 612.5,612.5C 607.335,610.662 603.001,607.662 599.5,603.5C 599.027,602.094 598.027,601.427 596.5,601.5C 595.5,601.167 594.833,600.5 594.5,599.5C 593.415,597.413 591.749,596.08 589.5,595.5C 581.71,587.921 574.377,579.921 567.5,571.5C 567.5,569.5 566.5,568.5 564.5,568.5C 559.167,562.833 553.833,557.167 548.5,551.5C 547.415,549.413 545.749,548.08 543.5,547.5C 541.833,546.5 540.5,545.167 539.5,543.5C 538.738,541.738 537.404,540.738 535.5,540.5C 527.143,534.468 518.81,528.468 510.5,522.5C 510.027,521.094 509.027,520.427 507.5,520.5C 505.847,520.34 504.514,519.674 503.5,518.5C 503.027,517.094 502.027,516.427 500.5,516.5C 487.186,509.784 473.186,504.951 458.5,502C 436.011,497.97 414.678,501.304 394.5,512C 366.648,532.178 337.981,551.178 308.5,569C 279.54,585.649 248.54,596.316 215.5,601C 198.071,603.161 180.737,602.661 163.5,599.5C 161.162,597.96 158.495,597.294 155.5,597.5C 150.194,596.947 145.194,595.614 140.5,593.5C 138.485,592.076 136.152,591.41 133.5,591.5C 124.303,588.897 115.637,585.23 107.5,580.5C 107.027,579.094 106.027,578.427 104.5,578.5C 102.181,578.008 100.181,577.008 98.5,575.5C 98.0269,574.094 97.0269,573.427 95.5,573.5C 94.5084,573.672 93.8417,573.338 93.5,572.5C 93.0269,571.094 92.0269,570.427 90.5,570.5C 90.0269,569.094 89.0269,568.427 87.5,568.5C 87.0269,567.094 86.0269,566.427 84.5,566.5C 81.4669,564.984 78.8003,562.984 76.5,560.5C 76.0269,559.094 75.0269,558.427 73.5,558.5C 72.5,558.167 71.8333,557.5 71.5,556.5C 70.7377,554.738 69.4044,553.738 67.5,553.5C 65.5,552.167 63.8333,550.5 62.5,548.5C 60.1002,545.097 57.1002,542.43 53.5,540.5C 22.7982,507.426 4.79818,468.426 -0.5,423.5C -0.5,413.167 -0.5,402.833 -0.5,392.5C -0.166667,392.5 0.166667,392.5 0.5,392.5C 1.80629,387.384 2.47295,382.051 2.5,376.5C 3.03445,367.169 4.70112,358.169 7.5,349.5C 8.92381,347.485 9.59047,345.152 9.5,342.5C 10.9238,340.485 11.5905,338.152 11.5,335.5C 14.2861,324.127 18.6194,313.461 24.5,303.5C 25.9063,303.027 26.573,302.027 26.5,300.5C 26.3284,299.508 26.6618,298.842 27.5,298.5C 28.9063,298.027 29.573,297.027 29.5,295.5C 29.3284,294.508 29.6618,293.842 30.5,293.5C 31.9063,293.027 32.573,292.027 32.5,290.5C 33.9063,290.027 34.573,289.027 34.5,287.5C 35.9063,287.027 36.573,286.027 36.5,284.5C 36.7376,282.596 37.7376,281.262 39.5,280.5C 40.9063,280.027 41.573,279.027 41.5,277.5C 41.8333,276.5 42.5,275.833 43.5,275.5C 45.2624,274.738 46.2624,273.404 46.5,271.5C 47.1667,270.167 48.1667,269.167 49.5,268.5C 54.5,264.167 59.1667,259.5 63.5,254.5C 66.7642,252.906 69.4309,250.573 71.5,247.5C 73.7488,246.92 75.4154,245.587 76.5,243.5C 78.8003,241.016 81.4669,239.016 84.5,237.5C 86.0269,237.573 87.0269,236.906 87.5,235.5C 89.0269,235.573 90.0269,234.906 90.5,233.5C 103.932,224.462 118.599,218.128 134.5,214.5C 137.152,214.59 139.485,213.924 141.5,212.5C 150.208,209.653 159.208,207.487 168.5,206C 192.521,202.212 216.521,198.378 240.5,194.5C 243.152,194.59 245.485,193.924 247.5,192.5C 260.609,188.572 272.942,182.906 284.5,175.5C 287.089,174.581 289.089,172.914 290.5,170.5C 291.833,168.5 293.5,166.833 295.5,165.5C 297.587,164.415 298.92,162.749 299.5,160.5C 301.262,159.738 302.262,158.404 302.5,156.5C 307.678,147.15 312.011,137.483 315.5,127.5C 317.04,125.162 317.706,122.495 317.5,119.5C 318.848,109.866 320.015,100.199 321,90.5C 321.614,85.2422 322.781,80.2422 324.5,75.5C 325.924,73.4855 326.59,71.1522 326.5,68.5C 328.156,60.8619 331.156,53.8619 335.5,47.5C 336.906,47.0269 337.573,46.0269 337.5,44.5C 338.34,42.1475 339.674,40.1475 341.5,38.5C 342.906,38.0269 343.573,37.0269 343.5,35.5C 343.833,34.5 344.5,33.8333 345.5,33.5C 346.906,33.0269 347.573,32.0269 347.5,30.5C 348.5,28.8333 349.833,27.5 351.5,26.5C 354.427,25.2427 356.761,23.2427 358.5,20.5C 360.8,18.016 363.467,16.016 366.5,14.5C 368.027,14.573 369.027,13.9063 369.5,12.5C 375.862,8.15606 382.862,5.15606 390.5,3.5C 393.152,3.59047 395.485,2.92381 397.5,1.5C 399.952,0.934566 402.285,0.2679 404.5,-0.5 Z"/></g>
<g><path style="opacity:0.349" fill="#73c4bc" d="M 397.5,1.5 C 395.485,2.92381 393.152,3.59047 390.5,3.5C 392.515,2.07619 394.848,1.40953 397.5,1.5 Z"/></g>
<g><path style="opacity:0.333" fill="#7bc7c0" d="M 369.5,12.5 C 369.027,13.9063 368.027,14.573 366.5,14.5C 366.973,13.0937 367.973,12.427 369.5,12.5 Z"/></g>
<g><path style="opacity:0.349" fill="#7ac7c1" d="M 487.5,19.5 C 489.23,20.0256 490.564,21.0256 491.5,22.5C 489.368,22.4456 488.035,21.4456 487.5,19.5 Z"/></g>
<g><path style="opacity:0.341" fill="#72c4bc" d="M 358.5,20.5 C 356.761,23.2427 354.427,25.2427 351.5,26.5C 353.239,23.7573 355.573,21.7573 358.5,20.5 Z"/></g>
<g><path style="opacity:0.322" fill="#80cabd" d="M 347.5,30.5 C 347.573,32.0269 346.906,33.0269 345.5,33.5C 345.427,31.9731 346.094,30.9731 347.5,30.5 Z"/></g>
<g><path style="opacity:0.263" fill="#82cbc3" d="M 343.5,35.5 C 343.573,37.0269 342.906,38.0269 341.5,38.5C 341.427,36.9731 342.094,35.9731 343.5,35.5 Z"/></g>
<g><path style="opacity:0.333" fill="#80cabf" d="M 515.5,42.5 C 517.587,43.5846 518.92,45.2512 519.5,47.5C 517.413,46.4154 516.08,44.7488 515.5,42.5 Z"/></g>
<g><path style="opacity:0.224" fill="#84cbc4" d="M 337.5,44.5 C 337.573,46.0269 336.906,47.0269 335.5,47.5C 335.427,45.9731 336.094,44.9731 337.5,44.5 Z"/></g>
<g><path style="opacity:0.278" fill="#81cabd" d="M 521.5,49.5 C 522.906,49.9731 523.573,50.9731 523.5,52.5C 522.094,52.0269 521.427,51.0269 521.5,49.5 Z"/></g>
<g><path style="opacity:0.275" fill="#7bc7be" d="M 530.5,62.5 C 531.906,62.9731 532.573,63.9731 532.5,65.5C 531.094,65.0269 530.427,64.0269 530.5,62.5 Z"/></g>
<g><path style="opacity:0.349" fill="#6bc1bb" d="M 326.5,68.5 C 326.59,71.1522 325.924,73.4855 324.5,75.5C 324.41,72.8478 325.076,70.5145 326.5,68.5 Z"/></g>
<g><path style="opacity:0.345" fill="#7bc6bf" d="M 553.5,113.5 C 554.738,115.214 555.405,117.214 555.5,119.5C 553.926,117.898 553.259,115.898 553.5,113.5 Z"/></g>
<g><path style="opacity:0.329" fill="#73c4bc" d="M 317.5,119.5 C 317.706,122.495 317.04,125.162 315.5,127.5C 315.565,124.572 316.232,121.905 317.5,119.5 Z"/></g>
<g><path style="opacity:0.325" fill="#76c4bd" d="M 557.5,127.5 C 558.768,129.905 559.435,132.572 559.5,135.5C 557.96,133.162 557.294,130.495 557.5,127.5 Z"/></g>
<g><path style="opacity:0.314" fill="#7bc8bf" d="M 302.5,156.5 C 302.262,158.404 301.262,159.738 299.5,160.5C 299.738,158.596 300.738,157.262 302.5,156.5 Z"/></g>
<g><path style="opacity:0.314" fill="#7dc8c2" d="M 299.5,160.5 C 298.92,162.749 297.587,164.415 295.5,165.5C 296.08,163.251 297.413,161.585 299.5,160.5 Z"/></g>
<g><path style="opacity:0.345" fill="#6fc3bc" d="M 290.5,170.5 C 289.089,172.914 287.089,174.581 284.5,175.5C 285.911,173.086 287.911,171.419 290.5,170.5 Z"/></g>
<g><path style="opacity:0.349" fill="#71c4bd" d="M 247.5,192.5 C 245.485,193.924 243.152,194.59 240.5,194.5C 242.515,193.076 244.848,192.41 247.5,192.5 Z"/></g>
<g><path style="opacity:0.349" fill="#6dc2bb" d="M 573.5,202.5 C 574.768,204.905 575.435,207.572 575.5,210.5C 573.96,208.162 573.294,205.495 573.5,202.5 Z"/></g>
<g><path style="opacity:0.349" fill="#6bc2ba" d="M 141.5,212.5 C 139.485,213.924 137.152,214.59 134.5,214.5C 136.515,213.076 138.848,212.41 141.5,212.5 Z"/></g>
<g><path style="opacity:0.325" fill="#7fc9c1" d="M 90.5,233.5 C 90.0269,234.906 89.0269,235.573 87.5,235.5C 87.9731,234.094 88.9731,233.427 90.5,233.5 Z"/></g>
<g><path style="opacity:0.333" fill="#7ac8bd" d="M 87.5,235.5 C 87.0269,236.906 86.0269,237.573 84.5,237.5C 84.9731,236.094 85.9731,235.427 87.5,235.5 Z"/></g>
<g><path style="opacity:0.349" fill="#6dc3bc" d="M 76.5,243.5 C 75.4154,245.587 73.7488,246.92 71.5,247.5C 72.5846,245.413 74.2512,244.08 76.5,243.5 Z"/></g>
<g><path style="opacity:0.345" fill="#6ec3bb" d="M 71.5,247.5 C 69.4309,250.573 66.7642,252.906 63.5,254.5C 65.5691,251.427 68.2358,249.094 71.5,247.5 Z"/></g>
<g><path style="opacity:0.243" fill="#81cabe" d="M 595.5,256.5 C 596.906,256.973 597.573,257.973 597.5,259.5C 596.094,259.027 595.427,258.027 595.5,256.5 Z"/></g>
<g><path style="opacity:0.329" fill="#7ac7be" d="M 63.5,254.5 C 59.1667,259.5 54.5,264.167 49.5,268.5C 53.1667,262.833 57.8333,258.167 63.5,254.5 Z"/></g>
<g><path style="opacity:0.212" fill="#87ccc5" d="M 597.5,259.5 C 598.906,259.973 599.573,260.973 599.5,262.5C 598.094,262.027 597.427,261.027 597.5,259.5 Z"/></g>
<g><path style="opacity:0.341" fill="#7ac7bd" d="M 46.5,271.5 C 46.2624,273.404 45.2624,274.738 43.5,275.5C 43.7376,273.596 44.7376,272.262 46.5,271.5 Z"/></g>
<g><path style="opacity:0.271" fill="#81cbc4" d="M 41.5,277.5 C 41.573,279.027 40.9063,280.027 39.5,280.5C 39.427,278.973 40.0937,277.973 41.5,277.5 Z"/></g>
<g><path style="opacity:0.282" fill="#80cabd" d="M 613.5,281.5 C 614.906,281.973 615.573,282.973 615.5,284.5C 614.094,284.027 613.427,283.027 613.5,281.5 Z"/></g>
<g><path style="opacity:0.286" fill="#7bc6bd" d="M 36.5,284.5 C 36.573,286.027 35.9063,287.027 34.5,287.5C 34.427,285.973 35.0937,284.973 36.5,284.5 Z"/></g>
<g><path style="opacity:0.345" fill="#7ec9c2" d="M 617.5,286.5 C 619.914,287.911 621.581,289.911 622.5,292.5C 620.086,291.089 618.419,289.089 617.5,286.5 Z"/></g>
<g><path style="opacity:0.286" fill="#7cc6bd" d="M 34.5,287.5 C 34.573,289.027 33.9063,290.027 32.5,290.5C 32.427,288.973 33.0937,287.973 34.5,287.5 Z"/></g>
<g><path style="opacity:0.282" fill="#7cc6bd" d="M 32.5,290.5 C 32.573,292.027 31.9063,293.027 30.5,293.5C 30.427,291.973 31.0937,290.973 32.5,290.5 Z"/></g>
<g><path style="opacity:0.259" fill="#7fc6bf" d="M 29.5,295.5 C 29.573,297.027 28.9063,298.027 27.5,298.5C 27.427,296.973 28.0937,295.973 29.5,295.5 Z"/></g>
<g><path style="opacity:0.192" fill="#86ccc5" d="M 26.5,300.5 C 26.573,302.027 25.9063,303.027 24.5,303.5C 24.427,301.973 25.0937,300.973 26.5,300.5 Z"/></g>
<g><path style="opacity:0.318" fill="#7bc9c1" d="M 664.5,330.5 C 666.23,331.026 667.564,332.026 668.5,333.5C 666.368,333.446 665.035,332.446 664.5,330.5 Z"/></g>
<g><path style="opacity:0.349" fill="#71c2bc" d="M 11.5,335.5 C 11.5905,338.152 10.9238,340.485 9.5,342.5C 9.40953,339.848 10.0762,337.515 11.5,335.5 Z"/></g>
<g><path style="opacity:0.349" fill="#7bc8c0" d="M 682.5,343.5 C 684.23,344.026 685.564,345.026 686.5,346.5C 684.368,346.446 683.035,345.446 682.5,343.5 Z"/></g>
<g><path style="opacity:0.322" fill="#76c6be" d="M 9.5,342.5 C 9.59047,345.152 8.92381,347.485 7.5,349.5C 7.40953,346.848 8.07619,344.515 9.5,342.5 Z"/></g>
<g><path style="opacity:0.349" fill="#6fc3bc" d="M 2.5,376.5 C 2.47295,382.051 1.80629,387.384 0.5,392.5C 0.376027,386.931 1.04269,381.598 2.5,376.5 Z"/></g>
<g><path style="opacity:0.337" fill="#7ec9c1" d="M 786.5,414.5 C 788.262,415.262 789.262,416.596 789.5,418.5C 787.738,417.738 786.738,416.404 786.5,414.5 Z"/></g>
<g><path style="opacity:0.278" fill="#7ac6be" d="M 797.5,429.5 C 798.906,429.973 799.573,430.973 799.5,432.5C 798.094,432.027 797.427,431.027 797.5,429.5 Z"/></g>
<g><path style="opacity:0.345" fill="#76c6bf" d="M 813.5,464.5 C 814.913,467.219 815.58,470.219 815.5,473.5C 814.087,470.781 813.42,467.781 813.5,464.5 Z"/></g>
<g><path style="opacity:0.196" fill="#86ccc5" d="M 500.5,516.5 C 502.027,516.427 503.027,517.094 503.5,518.5C 501.973,518.573 500.973,517.906 500.5,516.5 Z"/></g>
<g><path style="opacity:0.247" fill="#82cabd" d="M 507.5,520.5 C 509.027,520.427 510.027,521.094 510.5,522.5C 508.973,522.573 507.973,521.906 507.5,520.5 Z"/></g>
<g><path style="opacity:0.306" fill="#86cfc7" d="M 53.5,540.5 C 57.1002,542.43 60.1002,545.097 62.5,548.5C 58.8998,546.57 55.8998,543.903 53.5,540.5 Z"/></g>
<g><path style="opacity:0.341" fill="#7cc9c1" d="M 535.5,540.5 C 537.404,540.738 538.738,541.738 539.5,543.5C 537.596,543.262 536.262,542.262 535.5,540.5 Z"/></g>
<g><path style="opacity:0.329" fill="#81cac0" d="M 543.5,547.5 C 545.749,548.08 547.415,549.413 548.5,551.5C 546.251,550.92 544.585,549.587 543.5,547.5 Z"/></g>
<g><path style="opacity:0.329" fill="#81c9c2" d="M 67.5,553.5 C 69.4044,553.738 70.7377,554.738 71.5,556.5C 69.5956,556.262 68.2623,555.262 67.5,553.5 Z"/></g>
<g><path style="opacity:0.271" fill="#81cbc4" d="M 73.5,558.5 C 75.0269,558.427 76.0269,559.094 76.5,560.5C 74.9731,560.573 73.9731,559.906 73.5,558.5 Z"/></g>
<g><path style="opacity:0.278" fill="#7ec6bf" d="M 84.5,566.5 C 86.0269,566.427 87.0269,567.094 87.5,568.5C 85.9731,568.573 84.9731,567.906 84.5,566.5 Z"/></g>
<g><path style="opacity:0.298" fill="#87cdc1" d="M 564.5,568.5 C 566.5,568.5 567.5,569.5 567.5,571.5C 566.167,570.833 565.167,569.833 564.5,568.5 Z"/></g>
<g><path style="opacity:0.251" fill="#82cbbc" d="M 87.5,568.5 C 89.0269,568.427 90.0269,569.094 90.5,570.5C 88.9731,570.573 87.9731,569.906 87.5,568.5 Z"/></g>
<g><path style="opacity:0.231" fill="#84cbc4" d="M 90.5,570.5 C 92.0269,570.427 93.0269,571.094 93.5,572.5C 91.9731,572.573 90.9731,571.906 90.5,570.5 Z"/></g>
<g><path style="opacity:0.208" fill="#84cbc4" d="M 95.5,573.5 C 97.0269,573.427 98.0269,574.094 98.5,575.5C 96.9731,575.573 95.9731,574.906 95.5,573.5 Z"/></g>
<g><path style="opacity:0.196" fill="#85ccc5" d="M 104.5,578.5 C 106.027,578.427 107.027,579.094 107.5,580.5C 105.973,580.573 104.973,579.906 104.5,578.5 Z"/></g>
<g><path style="opacity:0.349" fill="#73c4bb" d="M 133.5,591.5 C 136.152,591.41 138.485,592.076 140.5,593.5C 137.848,593.59 135.515,592.924 133.5,591.5 Z"/></g>
<g><path style="opacity:0.004" fill="#8fd2ce" d="M 780.5,593.5 C 780.573,595.027 779.906,596.027 778.5,596.5C 778.427,594.973 779.094,593.973 780.5,593.5 Z"/></g>
<g><path style="opacity:0.337" fill="#80c8c1" d="M 589.5,595.5 C 591.749,596.08 593.415,597.413 594.5,599.5C 592.251,598.92 590.585,597.587 589.5,595.5 Z"/></g>
<g><path style="opacity:0.271" fill="#7dc7bd" d="M 155.5,597.5 C 158.495,597.294 161.162,597.96 163.5,599.5C 160.572,599.435 157.905,598.768 155.5,597.5 Z"/></g>
<g><path style="opacity:0.333" fill="#7cc6be" d="M 596.5,601.5 C 598.027,601.427 599.027,602.094 599.5,603.5C 597.973,603.573 596.973,602.906 596.5,601.5 Z"/></g>
<g><path style="opacity:0.227" fill="#83cbc4" d="M 612.5,612.5 C 614.027,612.427 615.027,613.094 615.5,614.5C 613.973,614.573 612.973,613.906 612.5,612.5 Z"/></g>
</svg>
