<?xml version="1.0" encoding="UTF-8"?>
<!DOCTYPE svg PUBLIC "-//W3C//DTD SVG 1.1//EN" "http://www.w3.org/Graphics/SVG/1.1/DTD/svg11.dtd">
<svg xmlns="http://www.w3.org/2000/svg" version="1.1" width="551px" height="507px" style="shape-rendering:geometricPrecision; text-rendering:geometricPrecision; image-rendering:optimizeQuality; fill-rule:evenodd; clip-rule:evenodd" xmlns:xlink="http://www.w3.org/1999/xlink">
<g><path style="opacity:0.349" fill="#3db7b3" d="M 272.5,-0.5 C 277.167,-0.5 281.833,-0.5 286.5,-0.5C 329.619,0.866422 369.953,12.3664 407.5,34C 431.791,48.3079 454.457,64.8079 475.5,83.5C 475.833,85.8333 477.167,87.1667 479.5,87.5C 479.5,89.5 480.5,90.5 482.5,90.5C 483.757,93.4274 485.757,95.7607 488.5,97.5C 490.5,98.8333 492.167,100.5 493.5,102.5C 493.738,104.404 494.738,105.738 496.5,106.5C 499.2,108.234 501.2,110.568 502.5,113.5C 502.427,115.027 503.094,116.027 504.5,116.5C 507.898,119.627 510.565,123.293 512.5,127.5C 512.427,129.027 513.094,130.027 514.5,130.5C 514.427,132.027 515.094,133.027 516.5,133.5C 517.338,133.842 517.672,134.508 517.5,135.5C 517.427,137.027 518.094,138.027 519.5,138.5C 520.338,138.842 520.672,139.508 520.5,140.5C 520.427,142.027 521.094,143.027 522.5,143.5C 524.008,145.181 525.008,147.181 525.5,149.5C 525.427,151.027 526.094,152.027 527.5,152.5C 539.16,173.147 546.826,195.147 550.5,218.5C 550.5,222.833 550.5,227.167 550.5,231.5C 547.193,254.67 535.526,272.503 515.5,285C 503.13,292.352 490.13,298.352 476.5,303C 454.564,309.201 432.897,316.201 411.5,324C 378.804,338.701 352.971,361.201 334,391.5C 323.589,412.656 312.922,433.656 302,454.5C 283.664,479.758 259.164,495.592 228.5,502C 217.082,504.01 205.748,505.51 194.5,506.5C 191.167,506.5 187.833,506.5 184.5,506.5C 161.248,505.186 139.248,499.186 118.5,488.5C 118.027,487.094 117.027,486.427 115.5,486.5C 112.008,485.59 109.008,483.924 106.5,481.5C 106.027,480.094 105.027,479.427 103.5,479.5C 103.027,478.094 102.027,477.427 100.5,477.5C 100.027,476.094 99.0269,475.427 97.5,475.5C 95.5956,475.262 94.2623,474.262 93.5,472.5C 93.0269,471.094 92.0269,470.427 90.5,470.5C 89.5,470.167 88.8333,469.5 88.5,468.5C 87.4154,466.413 85.7488,465.08 83.5,464.5C 82.1667,463.833 81.1667,462.833 80.5,461.5C 79.7377,459.738 78.4044,458.738 76.5,458.5C 74.1667,456.833 72.1667,454.833 70.5,452.5C 70.573,450.973 69.9063,449.973 68.5,449.5C 64.4564,446.457 61.1231,442.791 58.5,438.5C 58.4456,436.368 57.4456,435.035 55.5,434.5C 23.754,391.322 5.0873,342.988 -0.5,289.5C -0.5,275.833 -0.5,262.167 -0.5,248.5C 0.969055,235.687 3.30239,223.02 6.5,210.5C 7.92381,208.485 8.59047,206.152 8.5,203.5C 8.40953,200.848 9.07619,198.515 10.5,196.5C 11.9238,194.485 12.5905,192.152 12.5,189.5C 17.2147,174.077 23.548,159.411 31.5,145.5C 32.9063,145.027 33.573,144.027 33.5,142.5C 33.6596,140.847 34.3263,139.514 35.5,138.5C 36.9063,138.027 37.573,137.027 37.5,135.5C 37.3284,134.508 37.6618,133.842 38.5,133.5C 39.9063,133.027 40.573,132.027 40.5,130.5C 45.0612,122.276 50.3946,114.61 56.5,107.5C 57.9063,107.027 58.573,106.027 58.5,104.5C 58.8333,103.5 59.5,102.833 60.5,102.5C 61.9063,102.027 62.573,101.027 62.5,99.5C 62.8333,98.5 63.5,97.8333 64.5,97.5C 66.2624,96.7377 67.2624,95.4044 67.5,93.5C 68.8333,91.5 70.5,89.8333 72.5,88.5C 74.914,87.0892 76.5806,85.0892 77.5,82.5C 79.1667,80.1667 81.1667,78.1667 83.5,76.5C 86.0892,75.5806 88.0892,73.914 89.5,71.5C 89.5,70.8333 89.8333,70.5 90.5,70.5C 93.4274,69.2427 95.7607,67.2427 97.5,64.5C 103.596,58.7376 110.262,53.7376 117.5,49.5C 119.027,49.573 120.027,48.9063 120.5,47.5C 122.027,47.573 123.027,46.9063 123.5,45.5C 142.348,32.9112 162.681,23.2445 184.5,16.5C 188.915,16.1394 192.915,14.8061 196.5,12.5C 196.833,12.5 197.167,12.5 197.5,12.5C 200.916,12.4725 203.916,11.4725 206.5,9.5C 207.167,9.5 207.833,9.5 208.5,9.5C 211.152,9.59047 213.485,8.92381 215.5,7.5C 234.363,3.10203 253.363,0.435365 272.5,-0.5 Z"/></g>
<g><path style="opacity:0.349" fill="#71c4bd" d="M 215.5,7.5 C 213.485,8.92381 211.152,9.59047 208.5,9.5C 210.515,8.07619 212.848,7.40953 215.5,7.5 Z"/></g>
<g><path style="opacity:0.349" fill="#6bc2bb" d="M 206.5,9.5 C 203.916,11.4725 200.916,12.4725 197.5,12.5C 200.215,10.9281 203.215,9.92809 206.5,9.5 Z"/></g>
<g><path style="opacity:0.349" fill="#6ac1ba" d="M 196.5,12.5 C 192.915,14.8061 188.915,16.1394 184.5,16.5C 188.216,14.5947 192.216,13.2613 196.5,12.5 Z"/></g>
<g><path style="opacity:0.325" fill="#7dc8c1" d="M 123.5,45.5 C 123.027,46.9063 122.027,47.573 120.5,47.5C 120.973,46.0937 121.973,45.427 123.5,45.5 Z"/></g>
<g><path style="opacity:0.333" fill="#7bc8c0" d="M 120.5,47.5 C 120.027,48.9063 119.027,49.573 117.5,49.5C 117.973,48.0937 118.973,47.427 120.5,47.5 Z"/></g>
<g><path style="opacity:0.345" fill="#6ec3bc" d="M 97.5,64.5 C 95.7607,67.2427 93.4274,69.2427 90.5,70.5C 92.2393,67.7573 94.5726,65.7573 97.5,64.5 Z"/></g>
<g><path style="opacity:0.329" fill="#78c6be" d="M 89.5,71.5 C 88.0892,73.914 86.0892,75.5806 83.5,76.5C 84.9108,74.086 86.9108,72.4194 89.5,71.5 Z"/></g>
<g><path style="opacity:0.306" fill="#86cbc2" d="M 475.5,83.5 C 477.167,84.5 478.5,85.8333 479.5,87.5C 477.167,87.1667 475.833,85.8333 475.5,83.5 Z"/></g>
<g><path style="opacity:0.322" fill="#7fc9c0" d="M 77.5,82.5 C 76.5806,85.0892 74.914,87.0892 72.5,88.5C 73.4194,85.9108 75.086,83.9108 77.5,82.5 Z"/></g>
<g><path style="opacity:0.329" fill="#81c7bd" d="M 479.5,87.5 C 480.833,88.1667 481.833,89.1667 482.5,90.5C 480.5,90.5 479.5,89.5 479.5,87.5 Z"/></g>
<g><path style="opacity:0.325" fill="#83cac0" d="M 482.5,90.5 C 485.243,92.2393 487.243,94.5726 488.5,97.5C 485.757,95.7607 483.757,93.4274 482.5,90.5 Z"/></g>
<g><path style="opacity:0.325" fill="#81cbc0" d="M 67.5,93.5 C 67.2624,95.4044 66.2624,96.7377 64.5,97.5C 64.7376,95.5956 65.7376,94.2623 67.5,93.5 Z"/></g>
<g><path style="opacity:0.29" fill="#7fcabd" d="M 62.5,99.5 C 62.573,101.027 61.9063,102.027 60.5,102.5C 60.427,100.973 61.0937,99.9731 62.5,99.5 Z"/></g>
<g><path style="opacity:0.329" fill="#80c9c3" d="M 493.5,102.5 C 495.262,103.262 496.262,104.596 496.5,106.5C 494.738,105.738 493.738,104.404 493.5,102.5 Z"/></g>
<g><path style="opacity:0.271" fill="#81cbc3" d="M 58.5,104.5 C 58.573,106.027 57.9063,107.027 56.5,107.5C 56.427,105.973 57.0937,104.973 58.5,104.5 Z"/></g>
<g><path style="opacity:0.278" fill="#80c5be" d="M 502.5,113.5 C 503.906,113.973 504.573,114.973 504.5,116.5C 503.094,116.027 502.427,115.027 502.5,113.5 Z"/></g>
<g><path style="opacity:0.239" fill="#83cbc4" d="M 512.5,127.5 C 513.906,127.973 514.573,128.973 514.5,130.5C 513.094,130.027 512.427,129.027 512.5,127.5 Z"/></g>
<g><path style="opacity:0.255" fill="#81cbbc" d="M 40.5,130.5 C 40.573,132.027 39.9063,133.027 38.5,133.5C 38.427,131.973 39.0937,130.973 40.5,130.5 Z"/></g>
<g><path style="opacity:0.22" fill="#86ccc4" d="M 514.5,130.5 C 515.906,130.973 516.573,131.973 516.5,133.5C 515.094,133.027 514.427,132.027 514.5,130.5 Z"/></g>
<g><path style="opacity:0.239" fill="#82cabc" d="M 37.5,135.5 C 37.573,137.027 36.9063,138.027 35.5,138.5C 35.427,136.973 36.0937,135.973 37.5,135.5 Z"/></g>
<g><path style="opacity:0.251" fill="#81c6c0" d="M 517.5,135.5 C 518.906,135.973 519.573,136.973 519.5,138.5C 518.094,138.027 517.427,137.027 517.5,135.5 Z"/></g>
<g><path style="opacity:0.227" fill="#82cbc4" d="M 520.5,140.5 C 521.906,140.973 522.573,141.973 522.5,143.5C 521.094,143.027 520.427,142.027 520.5,140.5 Z"/></g>
<g><path style="opacity:0.224" fill="#83cac4" d="M 33.5,142.5 C 33.573,144.027 32.9063,145.027 31.5,145.5C 31.427,143.973 32.0937,142.973 33.5,142.5 Z"/></g>
<g><path style="opacity:0.2" fill="#85cbc4" d="M 525.5,149.5 C 526.906,149.973 527.573,150.973 527.5,152.5C 526.094,152.027 525.427,151.027 525.5,149.5 Z"/></g>
<g><path style="opacity:0.349" fill="#72c3bc" d="M 12.5,189.5 C 12.5905,192.152 11.9238,194.485 10.5,196.5C 10.4095,193.848 11.0762,191.515 12.5,189.5 Z"/></g>
<g><path style="opacity:0.318" fill="#77c6bf" d="M 8.5,203.5 C 8.59047,206.152 7.92381,208.485 6.5,210.5C 6.40953,207.848 7.07619,205.515 8.5,203.5 Z"/></g>
<g><path style="opacity:0.31" fill="#7cc8c1" d="M 55.5,434.5 C 57.4456,435.035 58.4456,436.368 58.5,438.5C 57.0256,437.564 56.0256,436.23 55.5,434.5 Z"/></g>
<g><path style="opacity:0.004" fill="#8dd2c8" d="M 68.5,449.5 C 69.9063,449.973 70.573,450.973 70.5,452.5C 69.0937,452.027 68.427,451.027 68.5,449.5 Z"/></g>
<g><path style="opacity:0.314" fill="#85cbc6" d="M 76.5,458.5 C 78.4044,458.738 79.7377,459.738 80.5,461.5C 78.5956,461.262 77.2623,460.262 76.5,458.5 Z"/></g>
<g><path style="opacity:0.345" fill="#7bc6c0" d="M 83.5,464.5 C 85.7488,465.08 87.4154,466.413 88.5,468.5C 86.2512,467.92 84.5846,466.587 83.5,464.5 Z"/></g>
<g><path style="opacity:0.239" fill="#87ccc5" d="M 90.5,470.5 C 92.0269,470.427 93.0269,471.094 93.5,472.5C 91.9731,472.573 90.9731,471.906 90.5,470.5 Z"/></g>
<g><path style="opacity:0.263" fill="#80cabe" d="M 97.5,475.5 C 99.0269,475.427 100.027,476.094 100.5,477.5C 98.9731,477.573 97.9731,476.906 97.5,475.5 Z"/></g>
<g><path style="opacity:0.278" fill="#7dc6bf" d="M 100.5,477.5 C 102.027,477.427 103.027,478.094 103.5,479.5C 101.973,479.573 100.973,478.906 100.5,477.5 Z"/></g>
<g><path style="opacity:0.251" fill="#82cbbc" d="M 103.5,479.5 C 105.027,479.427 106.027,480.094 106.5,481.5C 104.973,481.573 103.973,480.906 103.5,479.5 Z"/></g>
<g><path style="opacity:0.2" fill="#85cbc4" d="M 115.5,486.5 C 117.027,486.427 118.027,487.094 118.5,488.5C 116.973,488.573 115.973,487.906 115.5,486.5 Z"/></g>
</svg>
