<svg xmlns="http://www.w3.org/2000/svg" viewBox="0 0 123.95 114.08"><defs><style>.cls-1{fill:#3db7b3;}</style></defs><g id="Layer_2" data-name="Layer 2"><g id="Layer_1-2" data-name="Layer 1"><path class="cls-1" d="M18.71,0a7.38,7.38,0,0,1,2.6,3.09C25.88,12,30.5,20.93,35.1,29.84c.17.32.34.64.48,1,.63,1.44.72,2.93-.61,3.91s-2.72.65-4-.37-2.23-1.81-3.36-2.7c-.31-.25-.64-.63-1.1-.4s-.28.74-.28,1.13c0,3.64,0,7.29,0,10.94V80.42A9.92,9.92,0,0,0,39.06,90c4.19-1.21,6.52-4.35,6.56-9,.05-6.82,0-13.63.08-20.44,0-2.74.3-5.49.59-8.21.37-3.37,3.48-6.12,7.14-6.46a7.39,7.39,0,0,1,7.75,4.86,11.33,11.33,0,0,1,.72,3.86c0,8.66.19,17.33-.09,26C61.39,94.06,54.21,101.53,40,104c-7.75,1.33-14.94-.83-21.28-5.19a19.55,19.55,0,0,1-8.61-16.38c-.24-16.49-.1-33-.13-49.49a4,4,0,0,0-.2-2,21.83,21.83,0,0,0-4.58,3.37c-1.07.89-2.21,1.42-3.6.58C0,33.83-.43,32.67.46,30.93c5-9.67,10-19.32,14.91-29A5.14,5.14,0,0,1,17.63,0Z"/><path class="cls-1" d="M112.65,99c1.54.23,2.87.5,4.21.62,1.52.13,2.55.8,2.67,2.35s-1,2.22-2.25,2.65c-3.15,1.14-6.33,2.2-9.49,3.29-5.6,1.92-11.2,3.83-16.79,5.77-1.19.41-2.38.67-3.36-.32a3,3,0,0,1-.44-3.18q4-13.27,8-26.57c.42-1.4,1-2.64,2.79-2.5s2.22,1.41,2.46,2.86c.17,1.06.37,2.12.48,3.19.17,1.52.77,1.49,1.73.56,3.79-3.64,4.94-8.24,4.64-13.25C106.84,67.32,102.47,62,96,60.76c-3.31-.64-6.69-.09-10-.24-1.24-.05-1.35.93-1.35,1.89,0,3.77,0,7.53,0,11.3,0,8,0,16,0,24,0,4.81-2.11,8-6,9.19a7.83,7.83,0,0,1-10.19-7.28q-.07-22.41,0-44.82c0-5.13,2.68-7.75,7.75-7.71,7,.06,13.89-.12,20.84.18,13,.55,23.77,9.27,26.18,22,2.14,11.32-.39,21.37-9.85,28.92A8.17,8.17,0,0,0,112.65,99Z"/></g></g></svg>